<svg xmlns="http://www.w3.org/2000/svg" xmlns:xlink="http://www.w3.org/1999/xlink" width="1539pt" height="466pt" viewBox="0.00 0.00 1539.00 466.00">
<g id="graph0" class="graph" transform="scale(1 1) rotate(0) translate(4 461.92)">
<polygon fill="white" stroke="none" points="-4,4 -4,-461.92 1534.88,-461.92 1534.88,4 -4,4"/>
<!-- 6 -->
<g id="node1" class="node">
<title>6</title>
<ellipse fill="#ff8800" fill-opacity="0.501961" stroke="#ff8800" stroke-opacity="0.501961" cx="883" cy="-299.52" rx="2.16" ry="2.16"/>
<text xml:space="preserve" text-anchor="middle" x="883" y="-299.69" font-family="arial" font-size="1.00" fill="#ff8800" fill-opacity="0.501961">6</text>
</g>
<!-- pl.Subject -->
<g id="node23" class="node">
<title>pl.Subject</title>
<g id="a_node23"><a xlink:title="subject              ------------------------------earmark              sex                  birth_date           death_date=null      generation=&quot;&quot;        parent_ids           → pl.Experimenter.proj(owner_id=&quot;user_id&quot;)→ pl.Experimenter.proj(responsible_id=&quot;user_id&quot;)→ subject.Line→ subject.Protocol">
<polygon fill="#00ff00" fill-opacity="0.188235" stroke="#00ff00" stroke-opacity="0.188235" points="915.62,-246.24 846.38,-246.24 846.38,-211.68 915.62,-211.68 915.62,-246.24"/>
<text xml:space="preserve" text-anchor="start" x="854.38" y="-225.69" font-family="arial" text-decoration="underline" font-size="12.00" fill="darkgreen">pl.Subject</text>
</a>
</g>
</g>
<!-- 6&#45;&gt;pl.Subject -->
<g id="edge1" class="edge">
<title>6-&gt;pl.Subject</title>
<path fill="none" stroke="#000000" stroke-width="0.75" stroke-dasharray="5,2" stroke-opacity="0.250980" d="M882.97,-297.55C882.81,-292.08 882.01,-264.68 881.48,-246.49"/>
</g>
<!-- 7 -->
<g id="node2" class="node">
<title>7</title>
<ellipse fill="#ff8800" fill-opacity="0.501961" stroke="#ff8800" stroke-opacity="0.501961" cx="918" cy="-299.52" rx="2.16" ry="2.16"/>
<text xml:space="preserve" text-anchor="middle" x="918" y="-299.69" font-family="arial" font-size="1.00" fill="#ff8800" fill-opacity="0.501961">7</text>
</g>
<!-- 7&#45;&gt;pl.Subject -->
<g id="edge2" class="edge">
<title>7-&gt;pl.Subject</title>
<path fill="none" stroke="#000000" stroke-width="0.75" stroke-dasharray="5,2" stroke-opacity="0.250980" d="M917.48,-297.55C914.53,-292.08 899.74,-264.68 889.92,-246.49"/>
</g>
<!-- pl.Lab -->
<g id="node3" class="node">
<title>pl.Lab</title>
<g id="a_node3"><a xlink:title="lab                  ------------------------------lab_name             institution          address              ">
<polygon fill="#00ff00" fill-opacity="0.188235" stroke="#00ff00" stroke-opacity="0.188235" points="1215.5,-457.92 1166.5,-457.92 1166.5,-423.36 1215.5,-423.36 1215.5,-457.92"/>
<text xml:space="preserve" text-anchor="start" x="1174.5" y="-437.37" font-family="arial" text-decoration="underline" font-size="12.00" fill="darkgreen">pl.Lab</text>
</a>
</g>
</g>
<!-- pl.Experimenter -->
<g id="node9" class="node">
<title>pl.Experimenter</title>
<g id="a_node9"><a xlink:title="user_id              ------------------------------name                 shorthand=&quot;&quot;         initials=&quot;&quot;          email=&quot;&quot;             → [nullable] pl.Lab">
<polygon fill="#000000" fill-opacity="0.125490" stroke="none" points="1233.12,-387.36 1148.88,-387.36 1148.88,-352.8 1233.12,-352.8 1233.12,-387.36"/>
<text xml:space="preserve" text-anchor="start" x="1156.88" y="-367.58" font-family="arial" text-decoration="underline" font-size="10.00">pl.Experimenter</text>
</a>
</g>
</g>
<!-- pl.Lab&#45;&gt;pl.Experimenter -->
<g id="edge3" class="edge">
<title>pl.Lab-&gt;pl.Experimenter</title>
<path fill="none" stroke="#000000" stroke-width="0.75" stroke-dasharray="5,2" stroke-opacity="0.250980" d="M1191,-423.04C1191,-412.11 1191,-397.86 1191,-387.05"/>
</g>
<!-- virtual_markers_optitrack.EyeNoseCamPosCalib -->
<g id="node4" class="node">
<title>virtual_markers_optitrack.EyeNoseCamPosCalib</title>
<g id="a_node4"><a xlink:title="→ pl.Subject------------------------------eye_left             eye_right            nose                 world_cam            ">
<polygon fill="#00ff00" fill-opacity="0.188235" stroke="#00ff00" stroke-opacity="0.188235" points="611.5,-175.68 334.5,-175.68 334.5,-141.12 611.5,-141.12 611.5,-175.68"/>
<text xml:space="preserve" text-anchor="middle" x="473" y="-154.12" font-family="arial" font-size="12.00" fill="darkgreen">virtual_markers_optitrack.EyeNoseCamPosCalib</text>
</a>
</g>
</g>
<!-- surgery.Analgesia -->
<g id="node5" class="node">
<title>surgery.Analgesia</title>
<g id="a_node5"><a xlink:title="analgesia            ------------------------------long_name            ">
<polygon fill="#00ff00" fill-opacity="0.188235" stroke="#00ff00" stroke-opacity="0.188235" points="1167,-246.24 1055,-246.24 1055,-211.68 1167,-211.68 1167,-246.24"/>
<text xml:space="preserve" text-anchor="start" x="1063" y="-225.69" font-family="arial" text-decoration="underline" font-size="12.00" fill="darkgreen">surgery.Analgesia</text>
</a>
</g>
</g>
<!-- surgery.AnalgesiaSubject -->
<g id="node7" class="node">
<title>surgery.AnalgesiaSubject</title>
<g id="a_node7"><a xlink:title="→ surgery.Analgesia→ pl.Subjectdatetime             ">
<polygon fill="#00ff00" fill-opacity="0.188235" stroke="#00ff00" stroke-opacity="0.188235" points="1334.25,-175.68 1181.75,-175.68 1181.75,-141.12 1334.25,-141.12 1334.25,-175.68"/>
<text xml:space="preserve" text-anchor="start" x="1189.75" y="-155.12" font-family="arial" text-decoration="underline" font-size="12.00" fill="darkgreen">surgery.AnalgesiaSubject</text>
</a>
</g>
</g>
<!-- surgery.Analgesia&#45;&gt;surgery.AnalgesiaSubject -->
<g id="edge4" class="edge">
<title>surgery.Analgesia-&gt;surgery.AnalgesiaSubject</title>
<path fill="none" stroke="#000000" stroke-width="0.75" stroke-opacity="0.250980" d="M1146.96,-211.19C1169.82,-200.52 1199.31,-186.77 1222.16,-176.12"/>
</g>
<!-- surgery.Antagonist -->
<g id="node6" class="node">
<title>surgery.Antagonist</title>
<g id="a_node6"><a xlink:title="antagonist           ------------------------------long_name            ">
<polygon fill="#00ff00" fill-opacity="0.188235" stroke="#00ff00" stroke-opacity="0.188235" points="1300.5,-246.24 1185.5,-246.24 1185.5,-211.68 1300.5,-211.68 1300.5,-246.24"/>
<text xml:space="preserve" text-anchor="start" x="1193.5" y="-225.69" font-family="arial" text-decoration="underline" font-size="12.00" fill="darkgreen">surgery.Antagonist</text>
</a>
</g>
</g>
<!-- surgery.Surgery -->
<g id="node12" class="node">
<title>surgery.Surgery</title>
<g id="a_node12"><a xlink:title="→ pl.Subjectdate                 ------------------------------weight               → pl.Experimenter→ surgery.Anesthesiaanesthesia_time      anesthesis_volume    → surgery.Antagonistantagonist_time      antagonist_volume    ">
<polygon fill="#00ff00" fill-opacity="0.188235" stroke="#00ff00" stroke-opacity="0.188235" points="1452,-175.68 1352,-175.68 1352,-141.12 1452,-141.12 1452,-175.68"/>
<text xml:space="preserve" text-anchor="start" x="1360" y="-155.12" font-family="arial" text-decoration="underline" font-size="12.00" fill="darkgreen">surgery.Surgery</text>
</a>
</g>
</g>
<!-- surgery.Antagonist&#45;&gt;surgery.Surgery -->
<g id="edge5" class="edge">
<title>surgery.Antagonist-&gt;surgery.Surgery</title>
<path fill="none" stroke="#000000" stroke-width="0.75" stroke-dasharray="5,2" stroke-opacity="0.250980" d="M1281.9,-211.19C1306.63,-200.52 1338.52,-186.77 1363.23,-176.12"/>
</g>
<!-- pl.Session -->
<g id="node8" class="node">
<title>pl.Session</title>
<g id="a_node8"><a xlink:title="session_id           ------------------------------→ pl.Subjectsession_datetime     ">
<polygon fill="#00ff00" fill-opacity="0.188235" stroke="#00ff00" stroke-opacity="0.188235" points="996.12,-175.68 923.88,-175.68 923.88,-141.12 996.12,-141.12 996.12,-175.68"/>
<text xml:space="preserve" text-anchor="start" x="931.88" y="-155.12" font-family="arial" text-decoration="underline" font-size="12.00" fill="darkgreen">pl.Session</text>
</a>
</g>
</g>
<!-- pl.Scan -->
<g id="node13" class="node">
<title>pl.Scan</title>
<g id="a_node13"><a xlink:title="→ pl.Sessionscan_id              ------------------------------→ [nullable] pl.Device→ scan.AcquisitionSoftwarescan_notes=&quot;&quot;        ">
<polygon fill="#00ff00" fill-opacity="0.188235" stroke="#00ff00" stroke-opacity="0.188235" points="1005.25,-105.12 948.75,-105.12 948.75,-70.56 1005.25,-70.56 1005.25,-105.12"/>
<text xml:space="preserve" text-anchor="start" x="956.75" y="-84.56" font-family="arial" text-decoration="underline" font-size="12.00" fill="darkgreen">pl.Scan</text>
</a>
</g>
</g>
<!-- pl.Session&#45;&gt;pl.Scan -->
<g id="edge6" class="edge">
<title>pl.Session-&gt;pl.Scan</title>
<path fill="none" stroke="#000000" stroke-width="0.75" stroke-opacity="0.250980" d="M964.12,-140.8C966.79,-130.02 970.26,-116.03 972.92,-105.28"/>
</g>
<!-- session.SessionDirectory -->
<g id="node17" class="node">
<title>session.SessionDirectory</title>
<g id="a_node17"><a xlink:title="→ pl.Session------------------------------session_dir          → pl.Experimenter">
<polygon fill="#00ff00" fill-opacity="0.188235" stroke="#00ff00" stroke-opacity="0.188235" points="1530.88,-105.12 1379.12,-105.12 1379.12,-70.56 1530.88,-70.56 1530.88,-105.12"/>
<text xml:space="preserve" text-anchor="middle" x="1455" y="-83.56" font-family="arial" font-size="12.00" fill="darkgreen">session.SessionDirectory</text>
</a>
</g>
</g>
<!-- pl.Session&#45;&gt;session.SessionDirectory -->
<g id="edge7" class="edge">
<title>pl.Session-&gt;session.SessionDirectory</title>
<path fill="none" stroke="#000000" stroke-width="2" stroke-opacity="0.250980" d="M996.13,-143.51C999.11,-142.62 1002.09,-141.81 1005,-141.12 1040.45,-132.77 1260.24,-109.13 1379.01,-96.7"/>
</g>
<!-- session.ProjectSession -->
<g id="node24" class="node">
<title>session.ProjectSession</title>
<g id="a_node24"><a xlink:title="→ pl.Project→ pl.Session">
<polygon fill="#00ff00" fill-opacity="0.188235" stroke="#00ff00" stroke-opacity="0.188235" points="930.62,-105.12 789.38,-105.12 789.38,-70.56 930.62,-70.56 930.62,-105.12"/>
<text xml:space="preserve" text-anchor="middle" x="860" y="-83.56" font-family="arial" font-size="12.00" fill="darkgreen">session.ProjectSession</text>
</a>
</g>
</g>
<!-- pl.Session&#45;&gt;session.ProjectSession -->
<g id="edge8" class="edge">
<title>pl.Session-&gt;session.ProjectSession</title>
<path fill="none" stroke="#000000" stroke-width="0.75" stroke-opacity="0.250980" d="M935.54,-140.63C919.93,-129.92 899.77,-116.11 884.21,-105.44"/>
</g>
<!-- pl.SessionUser -->
<g id="node25" class="node">
<title>pl.SessionUser</title>
<g id="a_node25"><a xlink:title="→ pl.Session→ pl.Experimenter">
<polygon fill="#00ff00" fill-opacity="0.188235" stroke="#00ff00" stroke-opacity="0.188235" points="1280.88,-105.12 1183.12,-105.12 1183.12,-70.56 1280.88,-70.56 1280.88,-105.12"/>
<text xml:space="preserve" text-anchor="middle" x="1232" y="-83.56" font-family="arial" font-size="12.00" fill="darkgreen">pl.SessionUser</text>
</a>
</g>
</g>
<!-- pl.Session&#45;&gt;pl.SessionUser -->
<g id="edge9" class="edge">
<title>pl.Session-&gt;pl.SessionUser</title>
<path fill="none" stroke="#000000" stroke-width="0.75" stroke-opacity="0.250980" d="M996.22,-143.87C999.18,-142.9 1002.13,-141.97 1005,-141.12 1065.51,-123.28 1136.57,-107.77 1182.85,-98.37"/>
</g>
<!-- pl.Experimenter&#45;&gt;6 -->
<g id="edge10" class="edge">
<title>pl.Experimenter-&gt;6</title>
<path fill="none" stroke="#000000" stroke-width="0.75" stroke-dasharray="5,2" stroke-opacity="0.250980" d="M1148.91,-368.65C1090.4,-366.5 982.5,-356.85 901,-316.8 892.83,-312.79 885.63,-303.96 883.58,-301.29"/>
</g>
<!-- pl.Experimenter&#45;&gt;7 -->
<g id="edge11" class="edge">
<title>pl.Experimenter-&gt;7</title>
<path fill="none" stroke="#000000" stroke-width="0.75" stroke-dasharray="5,2" stroke-opacity="0.250980" d="M1149.05,-367.23C1096.62,-363.44 1005.35,-351.92 936,-316.8 927.88,-312.69 920.65,-303.93 918.59,-301.29"/>
</g>
<!-- scan.ScanPath -->
<g id="node11" class="node">
<title>scan.ScanPath</title>
<g id="a_node11"><a xlink:title="→ pl.Scan→ pl.Experimenterpath                 ">
<polygon fill="#00ff00" fill-opacity="0.188235" stroke="#00ff00" stroke-opacity="0.188235" points="528.5,-34.56 431.5,-34.56 431.5,0 528.5,0 528.5,-34.56"/>
<text xml:space="preserve" text-anchor="start" x="439.5" y="-14.01" font-family="arial" text-decoration="underline" font-size="12.00" fill="darkgreen">scan.ScanPath</text>
</a>
</g>
</g>
<!-- pl.Experimenter&#45;&gt;scan.ScanPath -->
<g id="edge12" class="edge">
<title>pl.Experimenter-&gt;scan.ScanPath</title>
<path fill="none" stroke="#000000" stroke-width="0.75" stroke-opacity="0.250980" d="M1148.96,-368.68C937.48,-366.13 0,-348.17 0,-229.96 0,-229.96 0,-229.96 0,-157.4 0,-68.25 309.3,-32.58 431.33,-21.98"/>
</g>
<!-- pl.Experimenter&#45;&gt;surgery.Surgery -->
<g id="edge13" class="edge">
<title>pl.Experimenter-&gt;surgery.Surgery</title>
<path fill="none" stroke="#000000" stroke-width="0.75" stroke-dasharray="5,2" stroke-opacity="0.250980" d="M1232.64,-362.83C1291.99,-351.44 1398.95,-321.14 1446,-246.24 1460.75,-222.77 1438.54,-193.73 1420.68,-175.89"/>
</g>
<!-- pl.Experimenter&#45;&gt;session.SessionDirectory -->
<g id="edge14" class="edge">
<title>pl.Experimenter-&gt;session.SessionDirectory</title>
<path fill="none" stroke="#000000" stroke-width="0.75" stroke-dasharray="5,2" stroke-opacity="0.250980" d="M1233.06,-364.56C1295.23,-357.18 1407.76,-340.9 1440,-316.8 1503.99,-268.97 1494.44,-219.3 1478,-141.12 1475.35,-128.51 1469.46,-115.22 1464.3,-105.2"/>
</g>
<!-- pl.Experimenter&#45;&gt;pl.SessionUser -->
<g id="edge15" class="edge">
<title>pl.Experimenter-&gt;pl.SessionUser</title>
<path fill="none" stroke="#000000" stroke-width="0.75" stroke-opacity="0.250980" d="M1232.78,-367.08C1278.79,-363.13 1353.35,-351.42 1407,-316.8 1440.41,-295.24 1449.08,-283.84 1462,-246.24 1467.98,-228.84 1471.66,-154.29 1461,-141.12 1438.78,-113.66 1341.75,-99.42 1281.35,-93.09"/>
</g>
<!-- subject.Line -->
<g id="node10" class="node">
<title>subject.Line</title>
<g id="a_node10"><a xlink:title="line                 ------------------------------line_name=&quot;&quot;         is_active            ">
<polygon fill="#00ff00" fill-opacity="0.188235" stroke="#00ff00" stroke-opacity="0.188235" points="1025.25,-316.8 944.75,-316.8 944.75,-282.24 1025.25,-282.24 1025.25,-316.8"/>
<text xml:space="preserve" text-anchor="start" x="952.75" y="-296.25" font-family="arial" text-decoration="underline" font-size="12.00" fill="darkgreen">subject.Line</text>
</a>
</g>
</g>
<!-- subject.Mutation -->
<g id="node21" class="node">
<title>subject.Mutation</title>
<g id="a_node21"><a xlink:title="→ subject.Linemutation_id          ------------------------------description=&quot;&quot;       ">
<polygon fill="#00ff00" fill-opacity="0.188235" stroke="#00ff00" stroke-opacity="0.188235" points="1036.5,-246.24 933.5,-246.24 933.5,-211.68 1036.5,-211.68 1036.5,-246.24"/>
<text xml:space="preserve" text-anchor="start" x="941.5" y="-225.69" font-family="arial" text-decoration="underline" font-size="12.00" fill="darkgreen">subject.Mutation</text>
</a>
</g>
</g>
<!-- subject.Line&#45;&gt;subject.Mutation -->
<g id="edge16" class="edge">
<title>subject.Line-&gt;subject.Mutation</title>
<path fill="none" stroke="#000000" stroke-width="0.75" stroke-opacity="0.250980" d="M985,-281.92C985,-271.14 985,-257.15 985,-246.4"/>
</g>
<!-- subject.Line&#45;&gt;pl.Subject -->
<g id="edge17" class="edge">
<title>subject.Line-&gt;pl.Subject</title>
<path fill="none" stroke="#000000" stroke-width="0.75" stroke-dasharray="5,2" stroke-opacity="0.250980" d="M959.56,-281.75C943.32,-271.04 922.36,-257.23 906.18,-246.56"/>
</g>
<!-- pl.Scan&#45;&gt;scan.ScanPath -->
<g id="edge18" class="edge">
<title>pl.Scan-&gt;scan.ScanPath</title>
<path fill="none" stroke="#000000" stroke-width="0.75" stroke-opacity="0.250980" d="M948.63,-73.34C945.75,-72.28 942.85,-71.33 940,-70.56 793.93,-31.1 613.94,-21.4 528.91,-19.04"/>
</g>
<!-- pupil_tracking.TorsionCalibManual -->
<g id="node14" class="node">
<title>pupil_tracking.TorsionCalibManual</title>
<g id="a_node14"><a xlink:title="→ pl.Subject------------------------------param_coeff          param_intercept      ">
<polygon fill="#00ff00" fill-opacity="0.188235" stroke="#00ff00" stroke-opacity="0.188235" points="830.62,-175.68 629.38,-175.68 629.38,-141.12 830.62,-141.12 830.62,-175.68"/>
<text xml:space="preserve" text-anchor="middle" x="730" y="-154.12" font-family="arial" font-size="12.00" fill="darkgreen">pupil_tracking.TorsionCalibManual</text>
</a>
</g>
</g>
<!-- subject.SubjectRspace -->
<g id="node15" class="node">
<title>subject.SubjectRspace</title>
<g id="a_node15"><a xlink:title="→ pl.Subject------------------------------rspace_subject_id    ">
<polygon fill="#00ff00" fill-opacity="0.188235" stroke="#00ff00" stroke-opacity="0.188235" points="167.5,-175.68 28.5,-175.68 28.5,-141.12 167.5,-141.12 167.5,-175.68"/>
<text xml:space="preserve" text-anchor="middle" x="98" y="-154.12" font-family="arial" font-size="12.00" fill="darkgreen">subject.SubjectRspace</text>
</a>
</g>
</g>
<!-- subject.SubjectGenotype -->
<g id="node16" class="node">
<title>subject.SubjectGenotype</title>
<g id="a_node16"><a xlink:title="→ pl.Subject→ subject.Mutation------------------------------genotype             ">
<polygon fill="#00ff00" fill-opacity="0.188235" stroke="#00ff00" stroke-opacity="0.188235" points="1163.75,-175.68 1014.25,-175.68 1014.25,-141.12 1163.75,-141.12 1163.75,-175.68"/>
<text xml:space="preserve" text-anchor="middle" x="1089" y="-154.12" font-family="arial" font-size="12.00" fill="darkgreen">subject.SubjectGenotype</text>
</a>
</g>
</g>
<!-- pl.Project -->
<g id="node18" class="node">
<title>pl.Project</title>
<g id="a_node18"><a xlink:title="project              ------------------------------project_description=&quot;&quot; ">
<polygon fill="#000000" fill-opacity="0.125490" stroke="none" points="905.62,-175.68 848.38,-175.68 848.38,-141.12 905.62,-141.12 905.62,-175.68"/>
<text xml:space="preserve" text-anchor="start" x="856.38" y="-155.9" font-family="arial" text-decoration="underline" font-size="10.00">pl.Project</text>
</a>
</g>
</g>
<!-- pl.Project&#45;&gt;session.ProjectSession -->
<g id="edge19" class="edge">
<title>pl.Project-&gt;session.ProjectSession</title>
<path fill="none" stroke="#000000" stroke-width="0.75" stroke-opacity="0.250980" d="M872.97,-141.15C870.3,-130.38 866.81,-116.29 864.12,-105.45"/>
</g>
<!-- subject.SubjectDeath -->
<g id="node19" class="node">
<title>subject.SubjectDeath</title>
<g id="a_node19"><a xlink:title="→ pl.Subject------------------------------death_date           cause                ">
<polygon fill="#00ff00" fill-opacity="0.188235" stroke="#00ff00" stroke-opacity="0.188235" points="316,-175.68 186,-175.68 186,-141.12 316,-141.12 316,-175.68"/>
<text xml:space="preserve" text-anchor="middle" x="251" y="-154.12" font-family="arial" font-size="12.00" fill="darkgreen">subject.SubjectDeath</text>
</a>
</g>
</g>
<!-- surgery.Anesthesia -->
<g id="node20" class="node">
<title>surgery.Anesthesia</title>
<g id="a_node20"><a xlink:title="anesthesia           ------------------------------long_name            ">
<polygon fill="#00ff00" fill-opacity="0.188235" stroke="#00ff00" stroke-opacity="0.188235" points="1437,-246.24 1319,-246.24 1319,-211.68 1437,-211.68 1437,-246.24"/>
<text xml:space="preserve" text-anchor="start" x="1327" y="-225.69" font-family="arial" text-decoration="underline" font-size="12.00" fill="darkgreen">surgery.Anesthesia</text>
</a>
</g>
</g>
<!-- surgery.Anesthesia&#45;&gt;surgery.Surgery -->
<g id="edge20" class="edge">
<title>surgery.Anesthesia-&gt;surgery.Surgery</title>
<path fill="none" stroke="#000000" stroke-width="0.75" stroke-dasharray="5,2" stroke-opacity="0.250980" d="M1383.81,-211.36C1387.58,-200.58 1392.48,-186.59 1396.24,-175.84"/>
</g>
<!-- subject.Mutation&#45;&gt;subject.SubjectGenotype -->
<g id="edge21" class="edge">
<title>subject.Mutation-&gt;subject.SubjectGenotype</title>
<path fill="none" stroke="#000000" stroke-width="0.75" stroke-opacity="0.250980" d="M1010.44,-211.19C1026.68,-200.48 1047.64,-186.67 1063.82,-176"/>
</g>
<!-- subject.Protocol -->
<g id="node22" class="node">
<title>subject.Protocol</title>
<g id="a_node22"><a xlink:title="protocol             ------------------------------protocol_description=&quot;&quot; ">
<polygon fill="#00ff00" fill-opacity="0.188235" stroke="#00ff00" stroke-opacity="0.188235" points="856.75,-316.8 755.25,-316.8 755.25,-282.24 856.75,-282.24 856.75,-316.8"/>
<text xml:space="preserve" text-anchor="start" x="763.25" y="-296.25" font-family="arial" text-decoration="underline" font-size="12.00" fill="darkgreen">subject.Protocol</text>
</a>
</g>
</g>
<!-- subject.Protocol&#45;&gt;pl.Subject -->
<g id="edge22" class="edge">
<title>subject.Protocol-&gt;pl.Subject</title>
<path fill="none" stroke="#000000" stroke-width="0.75" stroke-dasharray="5,2" stroke-opacity="0.250980" d="M824.16,-281.92C835.86,-271.22 851.03,-257.36 862.75,-246.64"/>
</g>
<!-- pl.Subject&#45;&gt;virtual_markers_optitrack.EyeNoseCamPosCalib -->
<g id="edge23" class="edge">
<title>pl.Subject-&gt;virtual_markers_optitrack.EyeNoseCamPosCalib</title>
<path fill="none" stroke="#000000" stroke-width="2" stroke-opacity="0.250980" d="M846.21,-222.11C786.28,-212.04 661.46,-191.07 572.69,-176.15"/>
</g>
<!-- pl.Subject&#45;&gt;surgery.AnalgesiaSubject -->
<g id="edge24" class="edge">
<title>pl.Subject-&gt;surgery.AnalgesiaSubject</title>
<path fill="none" stroke="#000000" stroke-width="0.75" stroke-opacity="0.250980" d="M915.85,-214.31C918.92,-213.34 922,-212.44 925,-211.68 1032.94,-184.2 1063.17,-194.16 1173,-175.68 1175.82,-175.21 1178.68,-174.71 1181.57,-174.21"/>
</g>
<!-- pl.Subject&#45;&gt;pl.Session -->
<g id="edge25" class="edge">
<title>pl.Subject-&gt;pl.Session</title>
<path fill="none" stroke="#000000" stroke-width="0.75" stroke-dasharray="5,2" stroke-opacity="0.250980" d="M900.12,-211.36C912.45,-200.66 928.43,-186.8 940.78,-176.08"/>
</g>
<!-- pl.Subject&#45;&gt;surgery.Surgery -->
<g id="edge26" class="edge">
<title>pl.Subject-&gt;surgery.Surgery</title>
<path fill="none" stroke="#000000" stroke-width="0.75" stroke-opacity="0.250980" d="M915.81,-214.12C918.89,-213.19 921.98,-212.36 925,-211.68 1106.97,-170.96 1159.47,-208.62 1343,-175.68 1345.82,-175.17 1348.71,-174.59 1351.61,-173.96"/>
</g>
<!-- pl.Subject&#45;&gt;pupil_tracking.TorsionCalibManual -->
<g id="edge27" class="edge">
<title>pl.Subject-&gt;pupil_tracking.TorsionCalibManual</title>
<path fill="none" stroke="#000000" stroke-width="2" stroke-opacity="0.250980" d="M845.98,-212.06C822.28,-201.3 791.03,-187.11 766.94,-176.17"/>
</g>
<!-- pl.Subject&#45;&gt;subject.SubjectRspace -->
<g id="edge28" class="edge">
<title>pl.Subject-&gt;subject.SubjectRspace</title>
<path fill="none" stroke="#000000" stroke-width="2" stroke-opacity="0.250980" d="M846.04,-226.96C743.08,-223.68 432.21,-211.3 177,-175.68 173.95,-175.25 170.84,-174.78 167.7,-174.27"/>
</g>
<!-- pl.Subject&#45;&gt;subject.SubjectGenotype -->
<g id="edge29" class="edge">
<title>pl.Subject-&gt;subject.SubjectGenotype</title>
<path fill="none" stroke="#000000" stroke-width="0.75" stroke-opacity="0.250980" d="M916.01,-214.84C919.05,-213.75 922.07,-212.69 925,-211.68 961.31,-199.18 1002.49,-186.06 1034.5,-176.09"/>
</g>
<!-- pl.Subject&#45;&gt;subject.SubjectDeath -->
<g id="edge30" class="edge">
<title>pl.Subject-&gt;subject.SubjectDeath</title>
<path fill="none" stroke="#000000" stroke-width="2" stroke-opacity="0.250980" d="M846.01,-226.17C758.03,-221.33 520.65,-206.28 325,-175.68 322.14,-175.23 319.23,-174.74 316.29,-174.22"/>
</g>
</g>
</svg>